<svg width="71" height="71" viewBox="0 0 71 71" fill="none" xmlns="http://www.w3.org/2000/svg">
<path d="M66.6457 17.5044H18.1697C17.819 13.5844 14.5218 10.5044 10.523 10.5044C6.24367 10.5044 2.80615 13.9344 2.80615 18.2044V53.2044C2.80615 57.4744 6.24367 60.9044 10.523 60.9044H66.6457C67.0666 60.9044 67.3472 60.6244 67.3472 60.2044V18.2044C67.3472 17.7844 67.0666 17.5044 66.6457 17.5044ZM4.20922 18.2044C4.20922 14.7044 7.01535 11.9044 10.523 11.9044C14.0307 11.9044 16.8368 14.7044 16.8368 18.2044V48.7944C15.4338 46.8344 13.1187 45.5044 10.523 45.5044C7.92735 45.5044 5.61229 46.8344 4.20922 48.7944V18.2044ZM65.9441 59.5044H10.523C7.01535 59.5044 4.20922 56.7044 4.20922 53.2044C4.20922 49.7044 7.01535 46.9044 10.523 46.9044C14.0307 46.9044 16.8368 49.7044 16.8368 53.2044C16.8368 53.6244 17.1174 53.9044 17.5384 53.9044C17.9593 53.9044 18.2399 53.6244 18.2399 53.2044V18.9044H65.9441V59.5044Z" fill="#7EAF2D"/>
<path d="M29.5346 41.7244L28.0613 51.7344C27.9912 52.0844 28.2718 52.4344 28.6226 52.5044C28.6927 52.5044 28.6927 52.5044 28.7629 52.5044C29.0435 52.5044 29.3241 52.2944 29.4644 52.0144L32.0601 43.4744C32.9721 43.8944 33.9542 44.1044 35.0767 44.1044C36.1991 44.1044 37.1813 43.8944 38.1634 43.4744L40.6889 52.0144C40.7591 52.2944 41.0397 52.5044 41.3905 52.5044C41.4606 52.5044 41.4606 52.5044 41.5308 52.5044C41.8815 52.4344 42.092 52.0844 42.092 51.7344L40.6188 41.7944C41.9517 40.3944 42.7935 38.5044 42.7935 36.4744C42.7935 36.0544 42.5129 35.7744 42.092 35.7744C41.6711 35.7744 41.3905 36.0544 41.3905 36.4744C41.3905 37.7344 40.9695 38.9244 40.3382 39.9744L38.5843 27.9344C38.5843 27.1644 38.3037 26.5344 37.8828 25.9744V24.2244C37.8828 22.8944 36.9708 21.7744 35.7782 21.7744H34.3751C33.1825 21.7744 32.2705 22.8944 32.2705 24.2244V25.9044C31.8496 26.4644 31.569 27.1644 31.569 27.8644L29.8152 39.9044C29.1838 38.9244 28.7629 37.7344 28.7629 36.4044C28.7629 35.9844 28.4823 35.7044 28.0613 35.7044C27.6404 35.7044 27.3598 35.9844 27.3598 36.4044C27.3598 38.5044 28.2016 40.3944 29.5346 41.7244ZM39.0053 41.3744L35.9887 31.3644C36.5499 31.2244 37.1111 30.8744 37.532 30.4544L39.1456 41.1644C39.0754 41.3044 39.0053 41.3044 39.0053 41.3744ZM37.1813 28.0044C37.1813 29.1944 36.2693 30.1044 35.0767 30.1044C33.8841 30.1044 32.9721 29.1944 32.9721 28.0044C32.9721 26.8144 33.8841 25.9044 35.0767 25.9044C36.2693 25.9044 37.1813 26.8144 37.1813 28.0044ZM32.6213 30.5244C33.0422 30.9444 33.6034 31.2244 34.1647 31.4344L31.1481 41.4444C31.0779 41.3744 31.0779 41.3744 31.0078 41.3044L32.6213 30.5244ZM35.0767 42.7044C34.0945 42.7044 33.2527 42.4944 32.4108 42.0744L35.0767 33.2544L37.7425 42.1444C36.9007 42.4944 36.0588 42.7044 35.0767 42.7044ZM34.3751 23.1044H35.7782C36.129 23.1044 36.4797 23.5944 36.4797 24.1544V24.7844C36.0588 24.5744 35.5677 24.5044 35.0767 24.5044C34.5856 24.5044 34.0945 24.6444 33.6736 24.7844V24.1544C33.6736 23.5944 34.0244 23.1044 34.3751 23.1044Z" fill="#7EAF2D"/>
<path d="M47.7043 46.3443C47.7043 46.4143 47.7043 46.4143 47.7744 46.4843L50.5806 52.0843C50.7209 52.2943 50.9313 52.5043 51.212 52.5043C51.4926 52.5043 51.703 52.3643 51.8433 52.0843L54.6495 46.4843C54.6495 46.4143 54.6495 46.4143 54.7196 46.3443C54.7196 46.2743 54.7196 46.2743 54.7196 46.2043V26.6043V25.2043C54.7196 23.2443 53.1762 21.7043 51.212 21.7043C49.2477 21.7043 47.7043 23.2443 47.7043 25.2043V26.6043V46.2043C47.7043 46.2743 47.7043 46.3443 47.7043 46.3443ZM49.1074 45.5043V30.1043H50.5104V45.5043H49.1074ZM51.9135 30.1043H53.3166V45.5043H51.9135V30.1043ZM53.3166 28.7043H49.1074V27.3043H53.3166V28.7043ZM51.212 50.2643L49.5283 46.9043H52.8956L51.212 50.2643ZM49.1074 25.2043C49.1074 24.0143 50.0193 23.1043 51.212 23.1043C52.4046 23.1043 53.3166 24.0143 53.3166 25.2043V25.9043H49.1074V25.2043Z" fill="#7EAF2D"/>
</svg>
