<svg width="40" height="40" viewBox="0 0 40 40" fill="none" xmlns="http://www.w3.org/2000/svg">
<path d="M28.3336 11.6668L23.7712 7.10444C22.4512 5.78439 21.7912 5.12436 21.0301 4.87708C20.3606 4.65954 19.6394 4.65954 18.9699 4.87708C18.2089 5.12436 17.5489 5.78439 16.2288 7.10444L11.6666 11.6666M28.3336 11.6668L32.8956 16.2288C34.2156 17.5488 34.8756 18.2088 35.1229 18.97C35.3404 19.6395 35.3404 20.3606 35.1229 21.03C34.8756 21.7911 34.2156 22.4511 32.8956 23.7713L28.3334 28.3333M28.3336 11.6668L11.6666 28.3333M11.6666 11.6666L7.10448 16.2288C5.78443 17.5488 5.1244 18.2088 4.8771 18.97C4.65958 19.6395 4.65958 20.3606 4.8771 21.03C5.1244 21.7911 5.78443 22.4511 7.10448 23.7713L11.6666 28.3333M11.6666 11.6666L28.3334 28.3333M28.3334 28.3333L23.7712 32.8955C22.4512 34.2156 21.7912 34.8756 21.0301 35.123C20.3606 35.3405 19.6394 35.3405 18.9699 35.123C18.2089 34.8756 17.5489 34.2156 16.2288 32.8955L11.6666 28.3333" stroke="white" stroke-width="2.5" stroke-linecap="round" stroke-linejoin="round"/>
</svg>
