<svg width="24" height="24" viewBox="0 0 24 24" fill="none" xmlns="http://www.w3.org/2000/svg">
<path d="M7.99846 2.4C4.91126 2.4 2.40002 4.91356 2.40002 8.00157V16.0016C2.40002 19.0888 4.91359 21.6 8.00159 21.6H16.0016C19.0888 21.6 21.6 19.0864 21.6 15.9984V7.99844C21.6 4.91124 19.0865 2.4 15.9985 2.4H7.99846ZM17.6 5.6C18.0416 5.6 18.4 5.9584 18.4 6.4C18.4 6.8416 18.0416 7.2 17.6 7.2C17.1584 7.2 16.8 6.8416 16.8 6.4C16.8 5.9584 17.1584 5.6 17.6 5.6ZM12 7.2C14.6472 7.2 16.8 9.3528 16.8 12C16.8 14.6472 14.6472 16.8 12 16.8C9.35283 16.8 7.20003 14.6472 7.20003 12C7.20003 9.3528 9.35283 7.2 12 7.2ZM12 8.8C11.1513 8.8 10.3374 9.13715 9.73728 9.73726C9.13717 10.3374 8.80003 11.1513 8.80003 12C8.80003 12.8487 9.13717 13.6626 9.73728 14.2627C10.3374 14.8629 11.1513 15.2 12 15.2C12.8487 15.2 13.6627 14.8629 14.2628 14.2627C14.8629 13.6626 15.2 12.8487 15.2 12C15.2 11.1513 14.8629 10.3374 14.2628 9.73726C13.6627 9.13715 12.8487 8.8 12 8.8Z" fill="#60727C"/>
</svg>
