<svg width="872" height="460" viewBox="0 0 872 460" fill="none" xmlns="http://www.w3.org/2000/svg">
<path d="M1.40234 356.167C1.40234 356.167 483.963 357.207 482.794 352.524C481.625 347.835 422.04 352.698 425.908 348.534C429.784 344.361 435.145 320.693 431.937 315.001C428.725 309.295 395.125 291.938 409.729 305.359C424.267 318.721 451.876 326.481 461.743 320.426C471.634 314.355 495.108 268.213 499.559 239.189C504.06 209.852 501.294 186.615 500.009 164.19C498.71 141.585 508.281 122.403 505.455 123.911C502.63 125.42 486.565 148.574 486.565 148.574L492.74 155.133C492.74 155.133 480.449 159.08 480.541 160.586C480.632 162.088 496.902 193.527 498.471 212.278C500.03 230.904 490.897 284.508 471.899 289.152C452.945 293.788 435.339 290.321 438.021 295.11C440.698 299.889 446.183 304.683 441.965 304.649C437.751 304.617 406.201 302.008 410.274 293.952C414.363 285.872 441.113 244.644 445.475 225.188C449.869 205.592 453.521 159.442 457.376 166.964C461.223 174.466 417.057 173.726 407.581 155.702C398.049 137.563 383.132 100.459 384.743 102.509C386.356 104.556 402.253 109.72 409.19 105.165C416.14 100.6 417.488 99.0755 417.122 93.9568C416.758 88.8297 415.271 81.6313 415.271 81.6313C415.271 81.6313 415.979 84.719 404.518 87.753C393.073 90.7819 382.022 86.1211 382.22 88.6888C382.418 91.2532 382.398 103.52 385.846 97.9183C389.301 92.3065 390.975 88.7257 386.007 81.0024C381.027 73.2572 362.879 53.5354 368.211 46.7982C373.557 40.0409 396.283 48.9735 389.174 52.0679C382.071 55.1572 366.286 41.0606 371.391 37.4262C376.502 33.7851 389.07 31.2106 389.503 36.9616C389.934 42.7026 371.022 32.7201 374.992 26.9758C378.971 21.2164 399.494 26.003 395.792 29.136C392.094 32.2656 380.285 19.1199 380.592 3.84094C380.901 -11.5186 402.493 40.1382 404.383 45.8791C406.27 51.6067 408.378 60.437 403.707 50.0402C399.021 39.6049 400.892 24.9582 406.419 33.3591C411.931 41.7349 413.648 58.9007 412.737 66.6643C411.829 74.4078 418.218 88.8347 421.86 99.0923C425.489 109.315 433.327 117.489 432.432 125.6C431.541 133.689 431.343 144.775 429.477 138.724C427.605 132.659 430.18 121.026 438.1 123.599C446.014 126.17 463.376 125.236 469.061 123.233C474.752 121.231 477.547 127.329 474.717 136.419C471.898 145.479 470.145 156.02 468.772 149.486C467.396 142.94 474.909 123.768 485.207 125.845C495.502 127.919 509.157 129.503 509.157 129.503C509.157 129.503 522.056 162.301 518.546 159.777C515.032 157.255 520.768 156.28 530.184 151.807C539.62 147.326 544.209 142.31 544.331 144.832C544.455 147.353 543.21 170.915 538.292 168.889C533.371 166.867 525.293 159.812 523.445 161.307C521.598 162.801 515.072 236.365 510.636 250.435C506.222 264.431 503.082 275.482 501.751 276.911C500.418 278.345 495.517 283.103 494.932 281.181C494.346 279.259 484.86 270.544 489.858 259.492C494.876 248.39 507.702 215.28 512.309 195.098C516.95 174.764 517.205 161.775 517.205 161.775C517.205 161.775 516.479 157.261 510.802 159.237C505.131 161.211 502.808 162.699 502.808 162.699C502.808 162.699 501.143 146.684 505.039 135.433C508.948 124.136 513.625 107.279 511.02 110.947C508.419 114.606 513.689 135.728 529.019 140.282C544.331 144.832 555.363 129.105 559.069 118.504C562.788 107.862 563.977 103.076 564.93 108.607C565.881 114.13 560.339 123.275 559.272 122.903C558.205 122.534 559.92 98.9967 562.602 96.0516C565.284 93.1031 570.797 98.3057 569.054 98.668C567.31 99.0302 561.692 91.6088 549.715 84.142C537.712 76.6619 515.8 82.5219 514.491 84.3735C513.182 86.2234 511.056 98.7921 510.25 96.9422C509.444 95.0906 505.332 90.636 503.431 94.3275C501.531 98.0122 504.567 114.591 507.452 109.828C510.344 105.058 510.589 90.2872 507.774 90.2754C504.962 90.2637 500.202 86.911 506.249 81.742C512.308 76.5612 534.791 67.7024 552.839 75.6019C570.848 83.4812 571.717 111.213 568.777 108.256C565.834 105.296 570.979 86.4548 566.769 71.1809C562.54 55.8264 534.63 50.4763 523.543 55.3166C512.477 60.1451 508.928 72.8262 508.928 72.8262C508.928 72.8262 522.595 71.0148 524.874 67.2932C527.156 63.5649 530.379 50.4612 537.787 49.7366C545.197 49.0104 556.796 54.3086 558.369 57.6914C559.942 61.0659 560.051 71.1574 561.299 75.2631C562.547 79.3638 562.688 105.652 555.665 120.691C548.681 135.644 547.137 146.915 546.599 150.179C546.063 153.438 519.211 229.019 518.879 247.974C518.546 266.804 503.176 312.859 510.799 322.124C518.397 331.36 545.055 332.25 546.684 324.445C548.317 316.616 538.719 274.576 541.83 262.091C544.957 249.546 567.405 201.324 566.088 202.74C564.772 204.155 523.377 261.616 523.612 246.955C523.845 232.216 552.758 191.249 551.807 185.877C550.855 180.495 543.38 176.507 548.148 174.736C552.919 172.965 558.195 174.429 559.015 169.756C559.839 165.074 550.467 143.66 551.234 152.374C552.001 161.062 573.248 169.471 576.407 178.122C579.555 186.748 579.728 253.97 579.255 266.522C578.78 279.014 594.204 346.188 586.707 344.098C579.208 342.006 561.729 349.636 559.567 346.58C557.401 343.523 559.799 337.45 561.375 342.203C562.946 346.949 554.507 373.42 558.946 368.437C563.399 363.446 565.908 352.707 571.183 357.799C576.45 362.884 591.282 388.078 590.622 380.41C589.959 372.719 581.457 362.253 585.965 365.648C590.468 369.039 604.32 388.194 602.361 381.177C600.401 374.144 588.227 363.652 593.387 366.718C598.544 369.777 615.686 388.293 612.366 380.263C609.036 372.211 594.954 364.046 599.694 365.091C604.435 366.138 617.547 375.63 614.685 370.919C611.82 366.201 592.905 355.285 589.357 350.875C585.804 346.456 584.085 337.983 584.085 337.983C584.085 337.983 564.228 338.503 562.046 335.095C559.858 331.684 547.977 234.477 554.182 249.256C560.356 263.954 561.42 307.821 561.637 319.445C561.85 331.021 555.007 349.582 552.736 351.248C550.469 352.916 443.948 358.421 439.696 359.727C435.447 361.032 271.958 444.642 289.064 441.353C306.2 438.056 355.509 441.996 406.177 451.995C456.745 461.973 524.285 448.825 569.983 448.403C615.763 447.98 796.218 461.887 796.2 457.552C796.18 453.208 675.041 355.739 670.521 354.802C666.002 353.866 596.893 354.194 607.695 355.184C618.493 356.172 636.754 352.276 639.671 345.54C642.597 338.79 632.353 316.004 634.926 325.127C637.489 334.224 648.639 344.713 653.843 338.427C659.061 332.128 650.826 270.147 651.215 282.643C651.601 295.086 658.529 344.339 673.861 345.366C689.198 346.394 741.941 346.82 740.196 320.477C738.433 293.877 721.129 218.119 715.29 202.423C709.423 186.639 698.203 182.744 703.459 167.878C708.746 152.929 723.979 142.813 736.362 156.944C748.685 171.011 771.335 253.259 773.787 270.995C776.22 288.619 769.398 338.897 761.723 339.742C754.049 340.588 727.311 335.387 732.217 331.341C737.128 327.289 761.602 328.844 761.652 333.391C761.701 337.928 758.299 356.427 758.299 356.427C758.299 356.427 722.153 349.82 723.466 347.576C724.777 345.329 733.252 339.514 731.092 345.379C728.936 351.231 694.072 362.188 700.89 365.834C707.699 369.475 721.859 358.377 723.33 365.128C724.798 371.86 711.088 403.319 717.239 398.505C723.402 393.683 731.629 377.727 731.218 379.957C730.807 382.181 715.138 405.123 724.025 403.436C732.92 401.747 738.791 376.897 738.824 379.131C738.858 381.361 727.712 410.094 733.009 407.052C738.314 404.006 744.667 380.073 744.705 382.75C744.744 385.422 740.117 405.35 744.952 400.083C749.796 394.805 752.339 383.708 752.218 374.331C752.097 364.92 752.861 354.132 750.056 346.439C747.243 338.723 741.154 324.136 733.395 320.43C725.626 316.72 652.759 317.989 640.836 312.879C628.896 307.762 627.844 303.635 628.572 298.596C629.304 293.55 627.632 284.788 629.062 286.643C630.49 288.496 660.418 301.585 685.724 297.179C711.093 292.765 733.707 283.237 732.93 291.539C732.153 299.817 730.486 308.981 729.471 302.553C728.452 296.112 721.841 257.605 721.841 257.605C721.841 257.605 719.847 223.79 715.723 225.182C711.605 226.574 694.334 216.543 694.275 193.728C694.215 170.724 720.149 137.932 718.365 142.791C716.584 147.64 691.998 134.873 692.134 140.716C692.266 146.548 690.271 161.062 677.245 179.757C664.315 198.322 644.455 242.135 652.509 235.617C660.584 229.081 667.101 215.432 655.429 194.937C643.677 174.295 643.067 155.021 641.219 155.494C639.372 155.968 622.582 154.917 622.305 160.225C622.028 165.525 627.016 201.913 629.468 219.458C631.905 236.893 635.163 278.838 630.338 270.933C625.497 263.01 627.664 233.579 627.844 238.743C628.025 243.897 604.892 272.61 592.272 264.64C579.624 256.65 575.826 191.144 582.074 196.895C588.31 202.634 606.458 195.13 606.458 195.13L603.297 185.092C603.297 185.092 569.611 186.337 579.817 187.35C590.025 188.361 587.031 183.092 579.174 172.509C571.293 161.887 563.043 133.769 567.394 137.194C571.739 140.616 576.185 157.094 573.587 150.798C570.982 144.492 563.443 122.071 569.8 128.444C576.145 134.803 578.05 146.466 577.986 145.01C577.922 143.556 567.068 119.641 572.494 126.019C577.905 132.381 584.646 148.435 584.057 145.526C583.469 142.613 574.211 122.61 579.624 128.978C585.025 135.333 591.477 156.205 591.824 153.308C592.172 150.409 595.834 137.33 597.581 146.078C599.323 154.794 597.249 161.059 598.001 168.287C598.751 175.494 605.738 188.452 607.545 199.42C609.346 210.347 609.088 239.562 607.826 230.634C606.56 221.676 607.757 180.812 613.937 172.695C620.137 164.55 627.038 162.662 633.946 160.767C640.863 158.873 645.799 153.097 645.754 151.646C645.71 150.192 659.112 162.345 659.661 165.243C660.209 168.135 660.542 179.667 660.841 173.909C661.139 168.14 660.55 163.801 668.301 158.048C676.07 152.284 683.035 131.903 684.967 134.35C686.896 136.797 689.863 143.623 687.503 142.638C685.143 141.652 681.035 173.537 676.817 172.073C672.594 170.607 666.419 165.758 666.393 164.795C666.366 163.831 684.494 134.105 682.933 127.753C681.37 121.39 680.543 116.483 680.543 116.483C680.543 116.483 688.651 111.857 684.942 104.211C681.224 96.5497 675.609 98.0072 676.174 101.709C676.74 105.407 678.621 105.415 677.847 102.703C677.074 99.9896 672.483 95.5266 670.266 91.8067C668.044 88.085 691.407 98.8156 686.184 97.0646C680.959 95.3153 675.095 87.124 658.286 84.8263C641.474 82.5286 623.602 90.6276 621.056 98.5204C618.519 106.386 622.488 112.545 623.262 114.51C624.034 116.474 622.357 115.487 622.47 118.673C622.582 121.853 626.063 127.733 625.242 124.31C624.42 120.884 626.563 121.873 615.556 115.212C604.524 108.54 602.72 98.195 609.763 91.8084C616.823 85.4033 634.265 71.3151 660.233 78.6275C686.155 85.9282 696.936 103.772 694.186 107.208C691.442 110.64 689.094 110.63 688.542 107.181C687.99 103.731 684.407 81.95 673.061 72.4572C661.683 62.9359 645.332 62.3791 642.781 64.115C640.233 65.8525 635.593 75.7981 636.927 73.3159C638.266 70.8304 650.485 60.6432 645.27 60.3749C640.052 60.1065 628.681 59.8164 624.19 66.7917C619.709 73.7469 616.473 82.1781 617.824 80.4456C619.177 78.7147 620.949 68.7725 618.676 71.253C616.406 73.7335 614.279 86.6276 614.865 96.2696C615.449 105.876 627.934 127.738 632.588 134.096C637.234 140.445 638.085 145.06 649.523 145.36C660.963 145.659 676.562 135.037 677.91 123.569C679.259 112.055 676.933 103.681 676.404 110.567C675.875 117.437 694.239 140.72 702.709 143.193C711.175 145.664 682.391 190.55 675.704 200.524C669.043 210.461 664.619 225.331 665.527 233.11C666.433 240.865 684.757 285.652 677.136 281.441C669.503 277.224 641.361 252.63 638.186 260.3C635.02 267.946 629.149 314.836 631.613 327.143C634.064 339.397 671.658 355.259 685.11 354.02C698.574 352.781 791.181 350.832 793.212 350.85C795.245 350.867 789.125 347.427 791.18 350.832C793.229 354.233 904.597 458.982 904.597 458.982" stroke="#7EAF2D" stroke-opacity="0.25" stroke-width="2" stroke-linecap="round" stroke-linejoin="round"/>
</svg>
